<?xml version="1.0" encoding="UTF-8"?>
<svg id="Layer_2" data-name="Layer 2" xmlns="http://www.w3.org/2000/svg" viewBox="0 0 119.19 119.19">
  <defs>
    <style>
      .cls-1 {
        fill: #fff;
      }

      .cls-2 {
        fill: #4366b0;
      }
    </style>
  </defs>
  <g id="Layer_1-2" data-name="Layer 1">
    <g>
      <rect class="cls-1" width="119.19" height="119.19"/>
      <g>
        <g>
          <polygon class="cls-2" points="62.25 69.87 54.27 77.84 29.88 46.48 35.98 41.26 55.13 66.51 57.67 63.99 62.25 69.87"/>
          <polygon class="cls-2" points="89.32 60.42 71.91 77.84 64.19 67.92 59.61 62.04 47.51 46.48 53.61 41.26 65.16 56.49 69.67 62.43 72.77 66.51 84.09 55.19 89.32 60.42"/>
        </g>
        <polygon class="cls-2" points="22.37 34.56 19.37 34.56 19.37 19.45 36.37 19.45 36.37 22.45 22.37 22.45 22.37 34.56"/>
        <polygon class="cls-2" points="34.43 99.63 19.32 99.63 19.32 82.63 22.32 82.63 22.32 96.63 34.43 96.63 34.43 99.63"/>
        <polygon class="cls-2" points="99.87 99.74 82.87 99.74 82.87 96.74 96.87 96.74 96.87 84.63 99.87 84.63 99.87 99.74"/>
        <polygon class="cls-2" points="99.64 36.56 96.64 36.56 96.64 22.57 84.53 22.57 84.53 19.57 99.64 19.57 99.64 36.56"/>
      </g>
    </g>
  </g>
</svg>