<?xml version="1.0" encoding="UTF-8"?>
<svg id="Layer_2" data-name="Layer 2" xmlns="http://www.w3.org/2000/svg" viewBox="0 0 80.55 80.28">
  <defs>
    <style>
      .cls-1 {
        fill: #4366b0;
      }
    </style>
  </defs>
  <g id="Layer_1-2" data-name="Layer 1">
    <g>
      <g>
        <polygon class="cls-1" points="42.93 50.42 34.95 58.39 10.56 27.03 16.66 21.8 35.81 47.06 38.35 44.53 42.93 50.42"/>
        <polygon class="cls-1" points="70 40.97 52.59 58.39 44.87 48.47 40.29 42.59 28.19 27.03 34.29 21.8 45.84 37.04 50.35 42.98 53.45 47.06 64.77 35.74 70 40.97"/>
      </g>
      <polygon class="cls-1" points="3.05 15.1 .05 15.1 .05 0 17.05 0 17.05 3 3.05 3 3.05 15.1"/>
      <polygon class="cls-1" points="15.11 80.18 0 80.18 0 63.18 3 63.18 3 77.18 15.11 77.18 15.11 80.18"/>
      <polygon class="cls-1" points="80.55 80.28 63.55 80.28 63.55 77.28 77.55 77.28 77.55 65.18 80.55 65.18 80.55 80.28"/>
      <polygon class="cls-1" points="80.32 17.11 77.32 17.11 77.32 3.11 65.21 3.11 65.21 .11 80.32 .11 80.32 17.11"/>
    </g>
  </g>
</svg>